HIERARCHY
ROOT root
{
	OFFSET	0	13.1	24.9
	CHANNELS 6  Xposition Yposition Zposition Xrotation Yrotation Zrotation
	JOINT spine_1
	{
		OFFSET	0	9.99999	0
		CHANNELS 3  Xrotation Yrotation Zrotation
		JOINT spine_2
		{
			OFFSET	0	112	-10
			CHANNELS 3  Xrotation Yrotation Zrotation
			JOINT spine_3
			{
				OFFSET	0	206.5	19.3
				CHANNELS 3  Xrotation Yrotation Zrotation
				JOINT spine_4
				{
					OFFSET	0	110.4	14.6
					CHANNELS 3  Xrotation Yrotation Zrotation
					JOINT neck_1
					{
						OFFSET	0	71.8	-50.3
						CHANNELS 3  Xrotation Yrotation Zrotation
						JOINT neck_2
						{
							OFFSET	0	86.2	-25.8
							CHANNELS 3  Xrotation Yrotation Zrotation
							JOINT head_ee
							{
								OFFSET	0	179.8	-8.7
								CHANNELS 3  Xrotation Yrotation Zrotation
								End Site
								{
									OFFSET	1	0	0
								}
							}
						}
					}
					JOINT left_clavicle
					{
						OFFSET	-43.2	22.4	-70.8
						CHANNELS 3  Xrotation Yrotation Zrotation
						JOINT left_shoulder
						{
							OFFSET	-93.9	-5.79999	48.7
							CHANNELS 3  Xrotation Yrotation Zrotation
							JOINT left_elbow
							{
								OFFSET	-291.4	-30.8	15.2
								CHANNELS 3  Xrotation Yrotation Zrotation
								JOINT left_lowarm_twist
								{
									OFFSET	-110.7	-3.89999	13.6
									CHANNELS 3  Xrotation Yrotation Zrotation
									JOINT left_hand
									{
										OFFSET	-110.7	-3.89999	13.6
										CHANNELS 3  Xrotation Yrotation Zrotation
										JOINT left_ee
										{
											OFFSET	-80.8	-5.10001	12.1
											CHANNELS 3  Xrotation Yrotation Zrotation
											End Site
											{
												OFFSET	1	0	0
											}
										}
									}
								}
							}
						}
					}
					JOINT right_clavicle
					{
						OFFSET	43.2	22.4	-70.8
						CHANNELS 3  Xrotation Yrotation Zrotation
						JOINT right_shoulder
						{
							OFFSET	93.9	-5.79999	48.7
							CHANNELS 3  Xrotation Yrotation Zrotation
							JOINT right_elbow
							{
								OFFSET	291.4	-30.8	15.2
								CHANNELS 3  Xrotation Yrotation Zrotation
								JOINT right_lowarm_twist
								{
									OFFSET	110.7	-3.89999	13.6
									CHANNELS 3  Xrotation Yrotation Zrotation
									JOINT right_hand
									{
										OFFSET	110.7	-3.89999	13.6
										CHANNELS 3  Xrotation Yrotation Zrotation
										JOINT right_ee
										{
											OFFSET	80.8	-5.10001	12.1
											CHANNELS 3  Xrotation Yrotation Zrotation
											End Site
											{
												OFFSET	1	0	0
											}
										}
									}
								}
							}
						}
					}
				}
			}
		}
	}
	JOINT left_hip
	{
		OFFSET	-82.8	-127.5	0.300001
		CHANNELS 3  Xrotation Yrotation Zrotation
		JOINT left_knee
		{
			OFFSET	-28.2	-396.7	2.2
			CHANNELS 3  Xrotation Yrotation Zrotation
			JOINT left_ankle
			{
				OFFSET	-11.7	-411.3	35.4
				CHANNELS 3  Xrotation Yrotation Zrotation
				JOINT left_toes
				{
					OFFSET	0	-60	-88.6
					CHANNELS 3  Xrotation Yrotation Zrotation
					JOINT left_foot_ee
					{
						OFFSET	-22.5	-16.5	-42.2
						CHANNELS 3  Xrotation Yrotation Zrotation
						End Site
						{
							OFFSET	1	0	0
						}
					}
				}
			}
		}
	}
	JOINT right_hip
	{
		OFFSET	82.8	-127.5	0.300001
		CHANNELS 3  Xrotation Yrotation Zrotation
		JOINT right_knee
		{
			OFFSET	28.2	-396.7	2.2
			CHANNELS 3  Xrotation Yrotation Zrotation
			JOINT right_ankle
			{
				OFFSET	11.7	-411.3	35.4
				CHANNELS 3  Xrotation Yrotation Zrotation
				JOINT right_toes
				{
					OFFSET	0	-60	-88.6
					CHANNELS 3  Xrotation Yrotation Zrotation
					JOINT right_foot_ee
					{
						OFFSET	22.5	-16.5	-42.2
						CHANNELS 3  Xrotation Yrotation Zrotation
						End Site
						{
							OFFSET	1	0	0
						}
					}
				}
			}
		}
	}
}
MOTION
Frames: 10
Frame Time: 0.02
1372.05 701.618 -1475.22 -12.4460124391 38.8969819476 8.96078000263 1.32313 -0.456687 -1.05384 1.32366 -0.388707 -1.08076 1.3312 -0.179328 -1.13444 1.32958 -0.356231 -1.09189 -6.37387 9.36707 3.29347 -6.33956 14.9532 5.11764 -0.0 0.0 -0.0 10.4243 -3.58566 20.6914 -20.4848 -12.8183 36.3828 2.53175 -51.4246 1.21927 18.2096 0.278263 -2.2997 0.587019 -1.48814 3.30748 -0.0 0.0 -0.0 6.84894 -1.76888 -13.2902 -24.9877 15.1668 -53.9746 0.361361 10.1491 -0.0320889 33.549 0.0569046 4.22467 2.1697 -29.8182 -23.9027 0.0 0.0 0.0 -6.17318 -23.1236 9.34935 -10.027 0.281212 1.51118 42.0148 24.8952 -5.3536 -33.4503 0.0 0.0 -0.0 0.0 -0.0 43.3519 22.524 -8.02231 -6.38722 -0.209793 -0.957295 9.18056 25.1423 1.56134 -8.93894 0.0 0.0 0.0 0.0 0.0 
1340.80196864 698.297 -1503.86515478 -10.8559239888 41.8209016777 7.91269543327 1.0723 -0.562087 -1.14541 1.0729 -0.488068 -1.17885 1.08326 -0.253165 -1.25052 1.08136 -0.44747 -1.19485 -5.88272 8.43286 2.23291 -5.8533 13.9382 3.82216 -0.0 0.0 -0.0 10.3186 -3.37024 20.4595 -21.5493 -13.4833 37.7686 2.60754 -52.245 1.27886 17.2413 0.28198 -2.17608 0.778978 -2.12475 4.33366 -0.0 0.0 -0.0 6.96801 -0.455039 -13.5283 -24.5875 15.3936 -54.0994 0.260418 7.35093 -0.0167285 34.143 0.0801708 4.29695 2.11632 -29.7338 -23.5678 0.0 0.0 0.0 -7.77145 -20.4345 9.30223 -14.3211 0.320052 2.16874 41.6608 24.906 -5.32137 -33.6471 0.0 0.0 -0.0 0.0 -0.0 42.7197 23.3837 -8.00236 -11.2259 -0.297014 -1.69445 8.94104 26.9911 1.55556 -8.02542 0.0 0.0 0.0 0.0 0.0 
1322.6766611 704.107 -1525.67898641 -11.1098757665 42.7349191217 7.73009952367 0.949382 -0.293061 -0.919558 0.949822 -0.233956 -0.93634 0.953823 -0.0480021 -0.963929 0.952582 -0.199627 -0.944254 -6.32935 9.15667 4.09647 -6.28161 13.9683 5.87558 -0.0 0.0 -0.0 10.0268 -3.05226 19.8315 -22.3295 -13.5995 38.161 2.6043 -52.2106 1.2763 15.9384 0.283684 -2.00968 0.324963 3.85862 3.76316 -0.0 0.0 -0.0 7.08645 -0.650782 -13.7617 -25.0688 15.1645 -54.293 0.396148 11.1028 -0.0385037 35.9486 0.155476 4.51512 1.71639 -29.4567 -21.153 0.0 0.0 0.0 -7.61305 -21.3946 8.28233 -15.5363 0.322088 2.35517 32.9542 20.9805 -4.346 -35.8394 0.0 0.0 -0.0 0.0 -0.0 41.3123 23.4921 -8.57072 -11.9966 -0.305145 -1.81242 8.23581 21.364 1.35094 -7.21984 0.0 0.0 0.0 0.0 0.0 
1301.67977303 706.781 -1547.52788131 -10.6180865781 44.8140459601 7.10045202882 0.698194 -0.173829 -0.92698 0.698665 -0.114493 -0.936161 0.700709 0.073331 -0.940281 0.699483 -0.0760825 -0.940062 -5.17066 10.1934 4.92327 -5.08038 15.0907 6.78133 -0.0 0.0 -0.0 10.0453 -1.97509 19.8343 -23.103 -13.7091 39.3911 2.5396 -51.5109 1.22541 16.0454 0.283687 -2.02334 0.809474 -0.810264 5.08163 -0.0 0.0 -0.0 7.42569 -0.89967 -14.4302 -24.2782 15.8112 -54.3345 0.328739 9.24948 -0.0265927 35.0703 0.117987 4.4093 1.53381 -29.2819 -20.0503 0.0 0.0 0.0 -7.69191 -17.7365 8.03598 -18.9134 0.306986 2.87302 36.0078 24.6201 -4.75697 -34.8236 0.0 0.0 -0.0 0.0 -0.0 40.0031 23.6673 -8.26103 -16.9586 -0.319449 -2.57336 11.6774 22.6639 1.91318 -6.85876 0.0 0.0 0.0 0.0 0.0 
1288.16870835 711.089 -1563.07368935 -10.9657367312 45.2770701431 6.71419951634 0.854459 0.0469064 -0.489648 0.854589 0.0779686 -0.485671 0.853943 0.171456 -0.461041 0.853659 0.0964923 -0.482333 -7.22884 8.93403 4.47224 -7.1883 13.4132 6.29358 -0.0 0.0 -0.0 10.196 -2.58607 20.1735 -24.6455 -13.3272 39.1311 2.44655 -50.4655 1.1531 15.6833 0.283575 -1.97709 0.832399 -0.361257 5.42003 -0.0 0.0 -0.0 7.78856 0.285727 -15.1667 -24.042 16.2208 -54.099 0.359976 10.111 -0.0318454 35.346 0.129581 4.44258 2.0201 -29.42 -22.9301 0.0 0.0 0.0 -7.41369 -17.6506 7.69698 -16.5863 0.320663 2.51626 38.6915 25.71 -5.06329 -34.3082 0.0 0.0 -0.0 0.0 -0.0 38.4003 23.8358 -7.96826 -14.9995 -0.321676 -2.27281 7.67011 26.584 1.33474 -7.53571 0.0 0.0 0.0 0.0 0.0 
1265.2841389 719.401 -1582.4412897 -7.24801929227 46.1322412167 2.92688623386 0.27154 0.215722 -0.259905 0.271547 0.231823 -0.245651 0.270528 0.27737 -0.19275 0.270559 0.243447 -0.234136 -7.66399 9.02917 4.97684 -7.61797 13.2949 6.85472 -0.0 0.0 -0.0 10.0754 -2.13068 19.903 -26.1207 -13.531 40.5447 2.41098 -50.0533 1.12575 15.0239 0.28262 -1.89288 0.695536 3.05784 5.89548 -0.0 0.0 -0.0 8.0535 0.58001 -15.7035 -23.8884 16.8793 -54.1128 0.399176 11.1856 -0.0390891 35.5183 0.136906 4.46335 1.96589 -27.7605 -22.2343 0.0 0.0 0.0 -2.95619 -15.3219 10.2117 -32.1111 -0.0425689 4.86381 42.1124 25.2068 -5.37327 -32.5902 0.0 0.0 -0.0 0.0 -0.0 34.1733 23.9977 -6.9221 -20.3726 -0.291023 -3.09634 14.1049 21.507 2.25945 -5.6457 0.0 0.0 0.0 0.0 0.0 
1248.47969283 721.793 -1600.69271204 -3.98173405154 45.8150187796 -0.297277306084 -0.166423 0.379061 -0.0407267 -0.166503 0.380885 -0.0165232 -0.166655 0.375663 0.0649916 -0.166458 0.381212 0.00484617 -7.06859 9.25052 5.1686 -7.00852 13.4765 7.03397 -0.0 0.0 -0.0 9.79902 -2.42889 19.3335 -27.9863 -13.9191 41.6286 2.36641 -49.5266 1.09172 14.6957 0.281784 -1.85097 0.647544 5.28702 6.47135 -0.0 0.0 -0.0 8.40518 1.78471 -16.4351 -23.6705 17.5554 -53.3592 0.409855 11.477 -0.0411872 35.1083 0.119572 4.41388 1.88687 -27.3618 -21.665 0.0 0.0 0.0 -0.650957 -14.8055 10.8557 -41.8061 -0.585647 6.24924 42.1994 24.3094 -5.35083 -31.376 0.0 0.0 -0.0 0.0 -0.0 30.9447 24.626 -5.97662 -24.2385 -0.221298 -3.68535 16.7942 20.1164 2.62113 -4.65921 0.0 0.0 0.0 0.0 0.0 
1252.93891562 721.793 -1604.93342204 -3.84593056605 43.8174717814 -0.489921992098 -0.166423 0.379061 -0.0407267 -0.166503 0.380885 -0.0165232 -0.166655 0.375663 0.0649916 -0.166458 0.381212 0.00484617 -7.06859 9.25052 5.1686 -7.00852 13.4765 7.03397 -0.0 0.0 -0.0 9.79902 -2.42889 19.3335 -27.9863 -13.9191 41.6286 2.36641 -49.5266 1.09172 14.6957 0.281784 -1.85097 0.647544 5.28702 6.47135 -0.0 0.0 -0.0 8.40518 1.78471 -16.4351 -23.6705 17.5554 -53.3592 0.409855 11.477 -0.0411872 35.1083 0.119572 4.41388 1.88687 -27.3618 -21.665 0.0 0.0 0.0 -0.650957 -14.8055 10.8557 -41.8061 -0.585647 6.24924 42.1994 24.3094 -5.35083 -31.376 0.0 0.0 -0.0 0.0 -0.0 30.9447 24.626 -5.97662 -24.2385 -0.221298 -3.68535 16.7942 20.1164 2.62113 -4.65921 0.0 0.0 0.0 0.0 0.0 
1213.98785669 726.187 -1636.10176663 -0.936008551824 44.4840429811 -4.01391282235 -0.720038 0.671332 0.332855 -0.72021 0.648791 0.3749 -0.715919 0.5492 0.509766 -0.715741 0.622815 0.416632 -7.45502 9.29031 5.64122 -7.38743 13.2739 7.5464 -0.0 0.0 -0.0 9.5112 -2.06585 18.7219 -30.6993 -14.1125 44.2211 2.28896 -48.5833 1.03321 13.917 0.278838 -1.75155 0.404741 8.47017 6.14467 -0.0 0.0 -0.0 9.13786 3.61743 -17.977 -22.3211 19.0127 -51.7613 0.484282 13.4905 -0.0572782 35.0822 0.118483 4.41073 1.73688 -25.8809 -20.3906 0.0 0.0 0.0 4.17682 -12.5681 11.9035 -54.666 -1.65237 7.91217 41.4086 23.8763 -5.2645 -29.896 0.0 0.0 -0.0 0.0 -0.0 25.4142 24.1799 -3.83872 -29.0713 -0.0785153 -4.41308 21.4277 15.631 3.14735 -3.24283 0.0 0.0 0.0 0.0 0.0 
1202.96603671 732.963 -1651.50873543 0.127268017759 43.6071066095 -5.35153004569 -1.11407 0.683847 0.461382 -1.11419 0.653103 0.503963 -1.1083 0.520344 0.640128 -1.10835 0.614909 0.549918 -7.46237 9.30922 5.70679 -7.39293 13.2634 7.61585 -0.0 0.0 -0.0 9.42614 -1.81543 18.5379 -31.759 -14.2262 45.6094 2.26453 -48.2783 1.01494 13.5224 0.27683 -1.70118 0.28369 9.50061 5.76913 -0.0 0.0 -0.0 9.4038 4.2883 -18.5451 -21.5631 19.6112 -51.0967 0.510219 14.1845 -0.0634815 35.029 0.116264 4.4043 1.63617 -25.2425 -19.6125 0.0 0.0 0.0 6.9701 -11.4403 11.97 -57.9686 -1.98467 8.29784 40.2942 23.8901 -5.16087 -29.4903 0.0 0.0 -0.0 0.0 -0.0 23.231 23.7272 -3.20331 -30.5802 -0.021407 -4.6376 23.2315 13.5862 3.33141 -2.73929 0.0 0.0 0.0 0.0 0.0 
